<?xml version="1.0" encoding="utf-8"?>
<!-- Generator: Adobe Illustrator 27.3.1, SVG Export Plug-In . SVG Version: 6.00 Build 0)  -->
<svg version="1.1" id="Layer_1" xmlns="http://www.w3.org/2000/svg" xmlns:xlink="http://www.w3.org/1999/xlink" x="0px" y="0px"
	 viewBox="0 0 79.2 79.2" style="enable-background:new 0 0 79.2 79.2;" xml:space="preserve">
<style type="text/css">
	.st0{fill:#ED777E;}
</style>
<g>
	<path class="st0" d="M71.33,23.19c-3.62-3.34-8.81-4.57-13.59-3.58c-2.45,0.51-4.73,1.6-6.66,3.18c-1.47-4.07-4.6-7.41-8.68-8.98
		c-3.76-1.45-8.13-1.41-11.82,0.22c-7.53,3.32-9.85,12.85-6.64,19.99c0.02,0.04,0.03,0.08,0.05,0.11c0.1,0.22,0.2,0.43,0.31,0.65
		c0.18-0.42,0.39-0.83,0.61-1.22c-0.08-0.19-0.15-0.38-0.23-0.57c-0.62-1.64-1-3.36-1.04-5.15c-0.08-3.98,1.2-8.17,4.06-11.02
		c2.77-2.76,6.81-4.14,10.69-3.62c4.42,0.59,8.33,3.43,10.5,7.29c0.55,0.98,0.98,2.03,1.3,3.11c0.08,0.27,0.97,0.2,1.13,0.04
		c3.65-3.45,8.86-4.94,13.71-3.39c4.04,1.29,7.45,4.5,8.8,8.54c0.83,2.48,0.83,5.12,0.17,7.63c-0.92,3.39-2.67,6.41-5.42,8.64
		c-2.61,2.13-5.77,3.46-8.85,4.76c-3.65,1.54-7.31,3.07-10.74,5.08c-1.99,1.17-3.89,2.48-5.68,3.93c-0.47,0.38-0.94,0.78-1.39,1.18
		c-0.22,0.19-0.42,0.42-0.65,0.59c-0.28,0.21-0.43,0.06-0.61-0.21c-0.32-0.5-0.44-1.24-0.63-1.8c-0.21-0.6-0.44-1.19-0.67-1.78
		c-0.36-0.89-0.75-1.77-1.17-2.63c-0.07-0.15-0.15-0.3-0.22-0.45c-0.23,0.32-0.46,0.63-0.69,0.95c0.07,0.16,0.15,0.32,0.22,0.48
		c0.37,0.83,0.72,1.67,1.05,2.52c0.23,0.6,0.44,1.21,0.65,1.83c0.16,0.5,0.26,1.01,0.74,1.31c0.64,0.4,1.7,0.38,2.33-0.04
		c0.51-0.35,0.96-0.86,1.43-1.26c0.54-0.46,1.08-0.9,1.64-1.33c3.67-2.83,7.78-4.96,12.02-6.8c3.41-1.47,6.96-2.75,10.14-4.71
		c2.93-1.8,5.27-4.25,6.66-7.42c0.41-0.92,0.73-1.88,1-2.86C76.41,31.6,75,26.58,71.33,23.19z"/>
	<path class="st0" d="M45.88,37.82c-0.09-0.8-0.25-1.59-0.45-2.37c0,0,0-0.01,0-0.01c-1.06-3.84-4.04-6.76-7.94-7.63
		c-3.84-0.86-7.93,0.36-10.85,2.96c-0.74,0.66-1.4,1.41-1.96,2.22c-0.25,0.37-0.48,0.75-0.7,1.14c-0.26,0.48-0.49,0.99-0.69,1.5
		c-2.64-2.24-6.15-3.29-9.6-2.75c-3.19,0.5-6.19,2.27-8.11,4.88C1.69,43.07,3.9,50.61,8.98,54.27c2.33,1.68,5.06,2.74,7.69,3.85
		c3.23,1.36,6.41,2.82,9.32,4.78c0.89,0.6,1.75,1.24,2.58,1.92c0.4,0.33,0.79,0.66,1.18,1.01c0.32,0.28,0.58,0.6,1.03,0.61
		c0.61,0.02,1.33-0.42,1.59-0.96c0.22-0.45,0.32-0.98,0.49-1.45c0.19-0.53,0.39-1.05,0.6-1.57c1.07-2.59,2.46-5,4.03-7.3
		c0.23-0.33,0.45-0.66,0.69-0.99c0.29-0.41,0.59-0.82,0.9-1.23c1.77-2.39,3.72-4.69,5.14-7.32C45.53,43.2,46.18,40.58,45.88,37.82z
		 M44.33,44.06c-0.96,2.52-2.62,4.71-4.23,6.84c-0.71,0.94-1.43,1.88-2.13,2.84c-0.23,0.32-0.46,0.63-0.69,0.95
		c-0.92,1.3-1.8,2.63-2.59,4.02c-0.91,1.6-1.7,3.27-2.36,4.99c-0.17,0.45-0.34,0.91-0.49,1.37c-0.07,0.22-0.12,0.46-0.22,0.67
		c-0.11,0.25-0.27,0.22-0.51,0.1c-0.42-0.21-0.8-0.69-1.16-0.99c-0.39-0.33-0.78-0.65-1.18-0.96c-2.73-2.14-5.76-3.81-8.92-5.22
		c-2.61-1.16-5.31-2.14-7.83-3.48c-2.3-1.22-4.36-2.83-5.72-5.08c-1.65-2.73-2.44-6.14-1.6-9.26c0.81-3.02,3.06-5.59,5.95-6.79
		c3.3-1.36,7.14-0.96,10.19,0.85c0.78,0.46,1.49,1.01,2.15,1.63c0.17,0.16,0.75-0.25,0.8-0.42c0.14-0.46,0.3-0.91,0.49-1.35
		c0.18-0.42,0.39-0.83,0.61-1.22c1.51-2.62,3.99-4.6,7.04-5.27c3.31-0.72,6.96,0.14,9.51,2.4c1.57,1.38,2.62,3.22,3.17,5.22
		C45.34,38.62,45.34,41.41,44.33,44.06z"/>
</g>
</svg>
